<svg xmlns="http://www.w3.org/2000/svg" xmlns:xlink="http://www.w3.org/1999/xlink" width="227.4" height="54.4"><defs><path id="a" d="M0 0h227.4v54.4H0z"/></defs><clipPath id="b"><use xlink:href="#a" overflow="visible"/></clipPath><path clip-path="url(#b)" fill="#FFF" d="M7 29.7c.1-.1 1.8 6.7 11.1 5.5-1.8-4.4-7.6-7.3-8.9-7.4.3-.2 1.9-1.4 2.2-1.6-.4 1.2 5 6.2 9.2 4.8-1.1-3.4-5.7-6.3-6.9-6.3l1.5-.9c-.3.6 3.7 4.5 7.9 4.2 0-2-4.5-5.8-5.4-5.5.4-.2 1.1-.6 1.3-.7.6 1.4 4.5 4.3 7.2 3.9-2.2-4.7-5-4.9-5-4.9.7-.4 1.2-.6 1.3-.6 0 1.2 3.9 4.1 6.5 3.4-.5-2.1-2.7-4.1-4.7-4.3.5-.2 1-.5 1.4-.7-.2.4 3 3.1 6.1 2.9-1.5-3.6-3.5-3.7-4.3-3.8.4-.2.9-.4 1.3-.7.2.5 1.9 2.8 5.9 2.2-1-2.2-3.2-2.9-4.3-3l1.4-.7c.3.3 1.3 2.5 5.4 1.7-.9-2.1-2.8-2.6-3.5-2.7.3-.2.8-.4 1-.6.3.5 2.4 2 4.6 1.4-.4-1.3-2-2-3.5-2.1l1.2-.8c.2.5 1.4 1.7 4.3.9-.9-1.8-3.3-1.6-3.3-1.6.6-.4.7-.6 1.2-.9 0 0 1.4 1.9 3.7.6-.7-1.1-1.7-1.6-2.8-1.3.3-.3.6-.5.8-.8-.1.3 1.7 1.2 3.3 0-.8-.7-1.6-.9-2.5-.9.4-.4.5-.4.7-.7 0 0 1.4 1.1 2.8-.3-1.1-.8-2.4-.3-2.4-.3l.5-.8c.2.3 1.8.6 2.3-.4-.4-.4-1.8-.3-2-.2 0 0 .2-.3.3-.5 2.9.3 1.9-3 1.2-4.9C34.4 16.8 20 5.1 2.5 15.5c-.8 2.1-1.1 4.4-.9 6.7 0 .2 0 .4.1.9 0 .2.2 1.4.7 2.8.3 1 .7 1.7 1.2 2.7.3-.2.5-.4.7-.6-.8-1.1-3.4-7.9-.1-11.8 3.1-.1 3.5 8.9 2.9 9.8 0 0 1.5-1 2-1.3-.7-.3-3-8 .9-11.2 0 0 3.5 1.3 2 9.5.6-.4 1.4-.7 2.3-1.2-.4-.8-2.8-6.6 1-9.7 2.1.8 2 7.2 1.1 8.6.7-.3 1.4-.7 2-1-1.2-.6-1.1-6.6.9-8.2 2.3 2.1 1.7 5.7 1.1 7.3l1.7-.7c-1.4-2.6-.7-5.6.7-6.9 1.1.7 1.4 2.8.9 6.2.5-.2.8-.3 1.2-.5-.3-.6-1.1-4 .9-5.9 1.8.9 1.2 4.7 1 5.1l1-.4c-.4-.8-.6-3.6 1-5 .7.5 1.3 1.8.7 4.2.4-.2.8-.4 1.2-.5-.6-.6-.2-3.1.7-4.1 1 .4 1.4 2.6 1.1 3.3l1-.5c-.3-.5-.4-2.9.6-3.5 1 .7.9 2.4.8 2.8.3-.2 1.1-.6 1.1-.6-.5-.5-.8-2 .4-3 1 .2 1 2.1.9 2.2.4-.3 1-.7 1.3-.9-.9-.2-.8-1.7-.3-2.3.6.1 1 .5 1.2 1.6.2-.2.8-.7 1-.9-.6 0-1.2-1.2-.4-2 .3.1 1 .4 1.1 1.3.4-.1.8-.7.8-.8-.4-.1-.8-1.3-.4-1.8.5 0 1 .7 1.1 1l.5-.7c-.3-.2-.9-.9-.4-1.5.6 0 .8.5.9.9-5.9 11.6-29.9 13.6-42.4 27.6 0 0-1.3 1.4-1.3 2v4.7h.3C.9 37.5 2.9 33 7 29.7M51.9.4c-1.1 0-1.9.9-1.9 2s.9 1.9 2 1.9 1.9-.9 1.9-2-.9-2-2-1.9m1.8 1.8c0 1-.8 1.8-1.7 1.8-.9 0-1.7-.7-1.7-1.7 0-.9.7-1.7 1.7-1.7.9 0 1.6.7 1.7 1.6"/><path clip-path="url(#b)" fill="#FFF" d="M51.7 1.9v-.2h-1v.2h.4v1.2h.2V1.9zm1.4 1.2V1.7h-.2l-.5.8-.4-.8h-.2v1.4h.2v-.9l.3.6h.3l.3-.6v.9zm-5 44.2h-2V42h2c.6 0 1.1.2 1.4.5.6.6.6 1.2.5 2v.4c0 .7 0 1.4-.5 2-.3.3-.8.4-1.4.4m-.9-.9h.8c.3 0 .6-.1.8-.3.2-.2.2-.6.2-1.4 0-.8 0-1.1-.2-1.4-.2-.2-.4-.3-.8-.3h-.8v3.4zm-21.4.9h-3.6v-3.6c0-.4 0-1.1.2-1.3.2-.3.4-.4.9-.4h2.5v1h-1.9c-.1 0-.3 0-.4.1-.1.1-.1.3-.1.5v.6h2.1v1h-2.1v1.3h2.5v.8zM8.8 42H5.2v3.6c0 .4 0 1.1.2 1.3.2.3.4.4.9.4h2.5v-1H6.9c-.1 0-.3 0-.4-.1-.1-.1-.1-.3-.1-.5v-.6h2.1v-1H6.3v-1.2h2.5V42zm24 4.4h2.4v1h-3.5v-4.7c0-.3-.1-.5-.4-.6h.7c.4 0 .8.1.8 1.2v3.1zm-28.7.9h-.9l-2.1-3.2v3.2H0V42h1l2 3.2V42h1.1zm39.8-2.9v-1.8c0-.3-.1-.4-.3-.5h.6c.5 0 .8.4.8 1.1v4.3h-1l-2-3.4v3.2h-1.1V42h1l2.1 3.2v-.8zm-5.4-1.9c-.1-.4-.3-.5-.6-.5h-.4l-2 5.4h1.1l.3-.9h1.9l.3.9h1.1l-1.7-4.9zm-1.2 3l.6-1.8.6 1.8h-1.2zm-8-3c-.1-.4-.3-.5-.6-.5h-.4l-2 5.4h1.1l.3-.9h1.9l.3.9H31l-1.7-4.9zm-1.2 3l.6-1.8.6 1.8h-1.2zm-16.6-.2l1-3.3h.8l1 3.3.7-3.3h1.1l-1.4 5.4h-.9l-1-3.2-1 3.2H11l-1.2-4.6c-.1-.5-.3-.6-.6-.7h.7c.5 0 .8.2.9.7l.7 2.5zm9.5-1.9c.2-.4.3-.8.4-1.1V42h-3.5v1h2.2l-2.3 3.5v.9h3.6v-1h-2.3l1.9-3z"/><path clip-path="url(#b)" fill="#A7A9AC" d="M24.3 54.4h-.9v-2.5l-.8 1.6h-.5l-.8-1.6v2.5h-.9V50h.9l1.1 2.3 1.1-2.3h.8zm-19.4 0c-.5 0-.9-.2-1.2-.5-.4-.4-.4-.9-.4-1.7V52c0-.7 0-1.2.4-1.7.4-.1.8-.3 1.2-.3.5 0 .8.2 1.2.5.4.4.4 1 .4 1.7s0 1.3-.4 1.7c-.3.3-.7.5-1.2.5m0-3.6c-.2 0-.4.1-.5.2-.2.2-.2.3-.2 1.2 0 .8 0 1 .2 1.2.1.1.3.2.5.2s.4-.1.5-.2c.2-.2.2-.4.2-1.2 0-.8 0-1-.2-1.2-.1-.1-.3-.2-.5-.2m9.7 3.6h-1l-.8-1.7h-.6v1.7h-.9V50H13c.8 0 1.4.5 1.4 1.3 0 .5-.3.9-.8 1.1l1 2zm-2.4-2.5h.8c.4 0 .6-.2.6-.5s-.2-.5-.6-.5h-.8v1zm6 2.5c-.7 0-1.2-.2-1.6-.6l.6-.6c.2.2.6.4 1 .4.5 0 .7-.2.7-.5 0-.1 0-.3-.1-.3-.1-.1-.2-.1-.4-.1l-.5-.1c-.4-.1-.6-.2-.8-.4-.2-.2-.3-.5-.3-.9 0-.8.6-1.3 1.5-1.3.6 0 1 .2 1.4.5l-.6.5c-.3-.3-.6-.3-.9-.3-.4 0-.6.2-.6.5 0 .1 0 .2.1.3.1.1.2.1.4.2l.5.1c.4.1.6.2.8.3.2.2.3.5.3.9.1.9-.6 1.4-1.5 1.4M2 54.4h-.9v-3.6H0V50h3.1v.8H2zm6.8 0c-.9 0-1.6-.6-1.6-1.5V50h.9v2.8c0 .5.3.8.7.8.4 0 .7-.3.7-.8V50h.9v2.8c0 .9-.6 1.6-1.6 1.6m6.5-3.2v-.6c0-.3-.1-.4-.3-.5h.5c.3 0 .6.1.6.9v3.4h-.9l.1-3.2z"/><path clip-path="url(#b)" fill="#FFF" d="M155.6 7.7l.2-1-.7-.7-1.9 1.1-1.2-.5-.8-2.1-.9.1.1 1-.2.3-.6-1 .1-.9-.4-1.5-1.4-1.3-1.1.1L146 0l-.8.5 1.1 1.2v.4l3 4.5-.1 1.6-.5 1.6-1.2.9.1.7 1.8.9.4.8-1 2 .2.5h.7l.4.4.9-.5 1.4-2.3.8-1.9-.3-.4.4-1h.9l.1.5.7-.4-.1-1 .5-.3zm-15.3-3.2c0-.6.2-1 .7-1 .5 0 .7.4.7 1v3.7c0 .6-.2 1-.7 1-.5 0-.7-.4-.7-1V4.5zm-3.5-1.9v7.3l2.3 2.3h3.8l2.3-2.3V2.6L142.9.3h-3.8l-2.3 2.3zm5.6 24.2l.6-.1V26l.7-1.7.7-2 .9-.6.9.1.4-.1.2-.5-.6-.6.2-.4.9-1.1.1-.8.5-.3.7-1.3-.2-.4.1-.5-.1-.2.1-.5-.7-.3-1.1.7v-.1l.1-.5-.3-.2-.3.1-.1-.1.2-.4.1-.2-.1-.3-1.3 1-.5 2-.8.4-.4 1.9-3.3 3.1-1 .4-1.5 2.1-1 2.3.5.8 1.2-.3.3.4h.6v.4l1.2.1 1.1-.6zm12.2-2.8c0 .6-.2 1-.7 1-.5 0-.7-.4-.7-1v-3.7c0-.6.2-1 .7-1 .5 0 .7.4.7 1V24zm3.5 1.8v-7.3l-2.3-2.3H152l-2.3 2.3v7.3l2.3 2.3h3.8l2.3-2.3zm-19.6 2.7l-.5.1.2.7-.8 1 .3.1 1.5-.4.3-.6-.2-.2zm-44-.4h6.2V.4h-3.2l-2.1 2.1h-3.5v5.4h2.6zM107 .4l-3.9 3.9v19.9l3.9 3.9h6.9l3.9-3.9V4.3L113.9.4H107zm4.6 21.6c0 .6-.4 1.1-1 1.1h-.4c-.5 0-1-.4-1-1.1V6.4c0-.6.4-1.1 1-1.1h.4c.5 0 1 .4 1 1.1V22zm19.4 6.1l3.9-3.9V4.3L131 .4h-6.9l-3.9 3.9v19.9l3.9 3.9h6.9zm-4.7-21.7c0-.6.4-1.1 1-1.1h.4c.5 0 1 .4 1 1.1V22c0 .6-.4 1.1-1 1.1h-.4c-.5 0-1-.4-1-1.1V6.4zm38.9-6v27.7h6.2v-9.8h4.5l3.9-3.9V4.2L175.9.3h-10.7zm8.4 11.9c0 .6-.4 1-1 1h-1.3v-8h1.3c.5 0 1 .4 1 1v6zM181.7.4v23.8l3.9 3.9h6.9l3.9-3.9V.4h-6.2V22c0 .6-.4 1.1-1 1.1h-.4c-.5 0-1-.4-1-1.1V.4h-6.1zm31.7 3.8L209.5.3h-10.7V28h6.2V17.4h1.3c.5 0 1 .4 1 1v6.9l.3 2.7h6.2l-.3-3v-7.6l-2.7-2.7 2.7-2.7V4.2zm-6.2 7c0 .6-.4 1-1 1H205V5.3h1.3c.5 0 1 .4 1 1v4.9zm8.5 16.9h11.7v-5.3h-5.5v-6.1h5v-5.3h-5V5.7h5.5V.4h-11.7zM101.4 41.2h-.2l-2.1-8.9h-4.6v22h4.6v-9.5h.2l2.5 9.5h4.2v-22h-4.6zm6.5 13.1h9.3v-4.2h-4.4v-4.8h4v-4.2h-4v-4.6h4.4v-4.2h-9.3zm33.3-17.8h4.7l-4.6 14v3.8h10v-4.2h-4.6l4.6-13.8v-4h-10.1zm11.6 17.8h9.3v-4.2h-4.3v-4.8h3.9v-4.2h-3.9v-4.6h4.3v-4.2h-9.3zm25-22v22h8.8v-4.2h-4V32.3zm31.4 8.9h-.2l-2.1-8.9h-4.6v22h4.6v-9.5h.2l2.5 9.5h4.2v-22h-4.6zm6.5 13.1h8.5l3.1-3.1V35.4l-3.1-3.1h-8.5v22zm4.9-18.1h1c.4 0 .8.3.8.8v12.6c0 .5-.3.8-.8.8h-1V36.2zm-90.3 6.3h-.2l-1-10.2h-3.6l-1 10.2h-.3l-1.1-10.2h-4.6l2.8 22h4.4l1.3-9.5h.2l1.3 9.5h4.4l2.8-22h-4.3zm36.5-10.2l-3.5 22h4.7l.4-3.6h2.9l.4 3.6h4.9l-3.5-22h-6.3zm2.1 14.5l.9-7.2h.2l.9 7.2h-2zm22.3-14.5l-3.5 22h4.7l.4-3.6h2.9l.4 3.6h4.9l-3.5-22h-6.3zm2.1 14.5l.9-7.2h.2l.9 7.2h-2z"/><path clip-path="url(#b)" fill="#A7A9AC" d="M71.6.4H73v54h-1.4z"/></svg>